<svg xmlns="http://www.w3.org/2000/svg" viewBox="0 0 24 24" width="24" height="24"><path fill="none" stroke="#ffffff" stroke-width="1.6" stroke-linecap="round" stroke-linejoin="round" d="M8.2 2.5h7.6l5.7 5.7v7.6l-5.7 5.7H8.2l-5.7-5.7V8.2z"/><path fill="none" stroke="#ffffff" stroke-width="0.85" stroke-linecap="round" stroke-linejoin="round" d="M8.16 10.69 L7.46 9.9 L6.22 9.9 L5.52 10.69 L5.52 11.48 L6.22 12.1 L7.46 12.1 L8.16 12.72 L8.16 13.51 L7.46 14.3 L6.22 14.3 L5.52 13.51 M8.96 9.9 L11.6 9.9 M10.28 9.9 L10.28 14.3 M12.4 11.04 L13.54 9.9 L13.9 9.9 L15.04 11.04 L15.04 13.16 L13.9 14.3 L13.54 14.3 L12.4 13.16 L12.4 11.04 M15.84 14.3 L15.84 9.9 L17.51 9.9 L18.48 10.87 L18.48 11.66 L17.51 12.54 L15.84 12.54"/></svg>
